# xmcd CD database file
#
# Track frame offsets:
#	150
#	27455
#	51507
#	68697
#	85720
#	101482
#	116930
#	124690
#	146962
#	167797
#
# Disc length: 2381 seconds
#
# Revision: 0
# Processed by: cddbd v1.5PL3 Copyright (c) Steve Scherf et al.
# Submitted via: CDex 1.51
#
DISCID=91094b0a
DTITLE=佐山雅弘 - Above Horizons
DYEAR=2000
DGENRE=Jazz
TTITLE0=Above Horizons
TTITLE1=Beauty and the Beast
TTITLE2=Nica's Dream
TTITLE3=Second Hart
TTITLE4=REZA
TTITLE5=Goodbye Pork Pie Hat
TTITLE6=Giant Steps
TTITLE7=Nearness of You
TTITLE8=Far Beneath the Sea Rumblin'
TTITLE9=Aroma, Aroma, Aroma
EXTD=YEAR: 2000
EXTT0=
EXTT1=
EXTT2=
EXTT3=
EXTT4=
EXTT5=
EXTT6=
EXTT7=
EXTT8=
EXTT9=
PLAYORDER=
